<svg data-name="Layer 1" xmlns="http://www.w3.org/2000/svg" xmlns:xlink="http://www.w3.org/1999/xlink" viewBox="0 0 419.41 350.37" width="406" height="306" class="illustration styles_illustrationTablet__1DWOa">
    <defs>
        <linearGradient id="a" x1="171.64" y1="91.58" x2="169.36" y2="118.71" gradientUnits="userSpaceOnUse">
            <stop offset=".01" />
            <stop offset=".83" stop-opacity=".07" />
            <stop offset="1" stop-opacity="0" />
        </linearGradient>
        <linearGradient id="c" x1="70.76" y1="166.25" x2="162.98" y2="187.6" xlink:href="#a" />
        <linearGradient id="d" x1="6671.37" y1="161.38" x2="6784.01" y2="187.45" gradientTransform="matrix(-1 0 0 1 6956.03 0)" xlink:href="#a" />
        <linearGradient id="e" x1="177.54" y1="83.56" x2="183.02" y2="83.56" xlink:href="#a" />
        <linearGradient id="f" x1="164.58" y1="76.43" x2="180.41" y2="76.43" xlink:href="#a" />
        <linearGradient id="b" x1="154.11" y1="136.49" x2="154.11" y2="136.49" gradientUnits="userSpaceOnUse">
            <stop offset=".02" stop-color="#fff" stop-opacity="0" />
            <stop offset=".39" stop-color="#fff" stop-opacity=".39" />
            <stop offset="1" stop-color="#fff" />
        </linearGradient>
        <linearGradient id="g" x1="181.81" y1="173.04" x2="181.2" y2="128.39" xlink:href="#a" />
        <linearGradient id="h" x1="244.29" y1="153.29" x2="233.16" y2="146.47" xlink:href="#a" />
        <linearGradient id="i" x1="246.49" y1="199.1" x2="244.91" y2="135.25" xlink:href="#a" />
        <linearGradient id="j" x1="283.73" y1="199.1" x2="282.15" y2="135.25" xlink:href="#a" />
        <linearGradient id="k" x1="107.52" y1="244.51" x2="105.93" y2="180.66" xlink:href="#a" />
        <linearGradient id="l" x1="265.56" y1="244.06" x2="263.98" y2="180.21" xlink:href="#a" />
        <linearGradient id="m" x1="250.93" y1="113.01" x2="255.02" y2="178.41" xlink:href="#b" />
        <linearGradient id="n" x1="162.01" y1="233.15" x2="215.99" y2="132.47" xlink:href="#a" />
        <linearGradient id="o" x1="204.7" y1="202.47" x2="204.7" y2="178.25" xlink:href="#a" />
        <linearGradient id="p" x1="204.5" y1="240.95" x2="204.8" y2="224.9" xlink:href="#a" />
        <linearGradient id="q" x1="265.34" y1="212.08" x2="266.7" y2="339.7" xlink:href="#a" />
        <linearGradient id="r" x1="85.73" y1="213.99" x2="87.09" y2="341.61" xlink:href="#a" />
        <linearGradient id="s" x1="323.78" y1="211.45" x2="325.14" y2="339.07" xlink:href="#a" />
        <linearGradient id="t" x1="92" y1="179.22" x2="91.42" y2="222.27" xlink:href="#a" />
        <linearGradient id="u" x1="318.13" y1="182.12" x2="317.56" y2="225.17" xlink:href="#a" />
        <linearGradient id="v" x1="242.21" y1="229.36" x2="241.6" y2="184.7" xlink:href="#a" />
        <linearGradient id="w" x1="232.44" y1="229.36" x2="231.84" y2="184.7" xlink:href="#a" />
        <linearGradient id="x" x1="222.68" y1="229.36" x2="222.07" y2="184.7" xlink:href="#a" />
        <linearGradient id="y" x1="212.92" y1="229.36" x2="212.31" y2="184.7" xlink:href="#a" />
        <linearGradient id="z" x1="124.01" y1="184.83" x2="123.48" y2="145.71" xlink:href="#a" />
        <linearGradient id="A" x1="115.46" y1="184.83" x2="114.93" y2="145.71" xlink:href="#a" />
        <linearGradient id="B" x1="106.9" y1="184.83" x2="106.37" y2="145.71" xlink:href="#a" />
        <linearGradient id="C" x1="98.35" y1="184.83" x2="97.82" y2="145.71" xlink:href="#a" />
        <linearGradient id="D" x1="155.95" y1="228.5" x2="155.46" y2="192.14" xlink:href="#a" />
        <linearGradient id="E" x1="148" y1="228.5" x2="147.51" y2="192.14" xlink:href="#a" />
        <linearGradient id="F" x1="140.05" y1="228.5" x2="139.56" y2="192.14" xlink:href="#a" />
        <linearGradient id="G" x1="132.1" y1="228.5" x2="131.61" y2="192.14" xlink:href="#a" />
    </defs>
    <path d="M414.09 255.42a114 114 0 0 1-14.86 32.76 131.22 131.22 0 0 1-40.65 39.35A147.77 147.77 0 0 1 308 346.94c-19.24 3.55-39 3.36-58.67 3.11-56.92-.72-118.52 3.9-174.87-3.32C45.6 343 27 315.79 15.56 288.18A245.4 245.4 0 0 1 3.3 248.89C-3.4 219-5.21 186.45 10 159.26c9.72-17.38 25.59-31.14 37.77-47.16C61.28 94.34 70.1 74 81.59 55.1s26.58-37.14 48-46.38c16.81-7.26 36-8.31 54.55-8.24C206 .57 228.21 2.1 249 8.53s40.12 18.15 51.69 35.15c7.65 11.24 11.6 24.23 18.2 36 19.24 34.48 59.11 55.73 81.11 88.83a107.44 107.44 0 0 1 14.09 86.91Z" transform="translate(1.67 -.48)" fill="#00bfa6" opacity=".18" style="isolation:isolate" />
    <path d="M399.23 288.18a131.22 131.22 0 0 1-40.65 39.35A147.77 147.77 0 0 1 308 346.94c-19.24 3.55-39 3.36-58.67 3.11-56.92-.72-118.52 3.9-174.87-3.32C45.6 343 27 315.79 15.56 288.18Z" transform="translate(1.67 -.48)" fill="#00bfa6" opacity=".41" style="isolation:isolate" />
    <ellipse cx="202.2" cy="309.87" rx="158.05" ry="17.18" fill="#00bfa6" opacity=".66" style="isolation:isolate" />
    <path d="m193.18 296.76.8 8.32s-3.19 4.82-7.35 5.13-5.57-1.69-5.57-1.69l.68-12.24" fill="#f7ad7e" />
    <path d="m181.06 308.52.27-4.91 12.19-3.28.46 4.75s-3.19 4.82-7.35 5.13-5.57-1.69-5.57-1.69Z" fill="#fff" />
    <path d="m154.31 294.99-.9 11.19s3.28 5 7.55 5.27 5.71-1.73 5.71-1.73l-.7-12.57" fill="#f7ad7e" />
    <path d="m166.67 309.72-.28-5-12.52-3.37-.47 4.87s3.28 5 7.55 5.27 5.72-1.77 5.72-1.77Z" fill="#fff" />
    <path d="M149.43 188.35s-.76 12.17 1.12 48.29 2.43 58.54 2.43 58.54 1.85 4.28 8.07 4.36 6.63-2.51 6.63-2.51l6.08-92.57 6.34 94.47s8.15 1.47 14-1.76c4.13-2.28-.91-108.91-.91-108.91a51.58 51.58 0 0 1-43.76.09Z" fill="#3f3d56" />
    <path d="M164.46 110.77s-16.52 8-16.9 10.61 1.87 67 1.87 67 5.37 7 21.8 7c16.84 0 21.17-4.81 21.92-7s3.44-66.39 3.06-69.13-15.62-8.32-15.62-8.32Z" fill="#f3fcff" />
    <path d="m165.46 110.73-.2 85.63a23.68 23.68 0 0 0 17.47-1.52l-4.46-84.11-6.46 1.52Z" fill="#00bfa6" />
    <path fill="#f3fcff" d="m171.17 180.37 11.81 48.21 17.22-1.71-6.61-60.06-14.55-52.45-7.87 66.01z" />
    <path d="M165.57 101.07s-.11 5.77-.05 10c.05 3.15 1 9.19 6.66 9.19s6.37-7.7 6.27-9.19a49.35 49.35 0 0 0 0-6.71c-.38-3.68-12.56-5.84-12.88-3.29Z" fill="#f7ad7e" />
    <path d="M163.93 108.18s.66 7.3 5.31 6.36a9.09 9.09 0 0 0 7.4-7.5 4.64 4.64 0 0 0-1.42-4.46Z" transform="translate(1.67 -.48)" fill="url(#a)" />
    <path d="M181.43 101.52c-1.79 5.28-6.61 8.55-10 8.86s-7.06-2.77-8.55-6.62-1.67-18.59-1.67-18.59a6 6 0 0 1 .56-2.85c.47-1.07 1.33-4.3 2.49-5.23a29.89 29.89 0 0 1 16.32.35c1.12 1 1.68 4.1 1.94 4.67a4.91 4.91 0 0 1 .22 1.08c.47 3.55.27 13.71-1.31 18.33Z" fill="#f7ad7e" />
    <path d="M161.06 89.1a1.69 1.69 0 0 0-2.23.36 2.52 2.52 0 0 0-.24 1.39 9.73 9.73 0 0 0 .11 1.43 7 7 0 0 0 1.84 3.34 2.79 2.79 0 0 0 .75.62 1.18 1.18 0 0 0 .95.09 1.62 1.62 0 0 0 .82-1.35 7.13 7.13 0 0 0-.31-3.52 4.65 4.65 0 0 0-1.69-2.36ZM183.42 88.91a1.69 1.69 0 0 1 2.23.36 2.52 2.52 0 0 1 .24 1.39 8.54 8.54 0 0 1-.12 1.43 6.94 6.94 0 0 1-1.83 3.34 3 3 0 0 1-.75.62 1.18 1.18 0 0 1-1 .09 1.62 1.62 0 0 1-.82-1.35 7.13 7.13 0 0 1 .31-3.52 4.65 4.65 0 0 1 1.74-2.36Z" fill="#f7ad7e" />
    <path fill="#f3fcff" d="m171.17 180.37-6.52 48.21-24.48-1.71 9.39-60.06 14.9-56.03 6.71 69.59z" />
    <path d="m146.57 155.81 7.21-15.75-3.61 87.57-11.67-.28s9.16-46.45 8.07-71.54Z" transform="translate(1.67 -.48)" fill="url(#c)" />
    <path d="m193.3 153.91-7.22-15.75-.23 90.33 12.68-1.14s-6.33-48.35-5.23-73.44Z" transform="translate(1.67 -.48)" fill="url(#d)" />
    <path d="M147.9 120.76s-12.31 30-13.72 35.19 3 20.91 4.66 18.22c5.26-8.29 10.38-21.24 10.38-21.24ZM195.15 117.42s12.31 30 13.72 35.18-3 20.92-4.66 18.23c-5.26-8.29-10.38-21.24-10.38-21.24Z" fill="#f3fcff" />
    <path d="M182.92 89.52c0-.24-.09-.48-.14-.72a22.06 22.06 0 0 0-1.25-3.67c-.81-2-1.63-4-2.44-6-.13-.32-.26-.63-.38-1v-.06a.08.08 0 0 1 0 .09 1.23 1.23 0 0 1-.48.3 23.11 23.11 0 0 1-3.39 1 11 11 0 0 1-4.49-.32c-1.25-.36-2.53-1.43-3.86-1.37h-.19a3 3 0 0 0-2.81 2.48 36.6 36.6 0 0 1-2.09 9.55c-1.43-1-1.58-2.89-1.59-4.55s0-3.44 0-5.17a6.78 6.78 0 0 1 .28-2.46 2.54 2.54 0 0 1 1.82-1.66c.69-.12 1.48.11 2.07-.26a2.2 2.2 0 0 0 .72-1.6 6.57 6.57 0 0 1 1.3-3.34c1.64-1.92 4.76-2 7.23-1.24s4.59 2.33 7 3.26c1.63.64 3.52 1.07 4.57 2.42a5.65 5.65 0 0 1 .87 2.42 15.64 15.64 0 0 1-2.75 11.9Z" fill="#3f3d56" />
    <path d="M178.18 78.43q.24-.16.48-.3a1.23 1.23 0 0 1-.48.3Z" fill="none" />
    <path d="M181.78 88.33a2.56 2.56 0 0 1-.67.91 22.06 22.06 0 0 0-1.25-3.67l-2.82-7a5.19 5.19 0 0 1 1.78-.67 2.93 2.93 0 0 1 2.39.62 3.58 3.58 0 0 1 .95 1.79 14.35 14.35 0 0 1 .34 3.34 9.34 9.34 0 0 1-.72 4.68Z" transform="translate(1.67 -.48)" fill="url(#e)" />
    <path d="M180.41 77.58a10.14 10.14 0 0 0-3 2c-.13-.32-.26-.63-.38-1v-.06a.08.08 0 0 1 0 .09 1.23 1.23 0 0 1-.48.3 23.11 23.11 0 0 1-3.39 1 11 11 0 0 1-4.49-.32c-1.25-.36-2.53-1.43-3.86-1.37h-.19c.06-.2.15-.42.22-.65.64-2.08 1.06-3.87 3.44-4.52a6.49 6.49 0 0 1 4.18.39 17.12 17.12 0 0 0 3.81 1.6 13.24 13.24 0 0 1 2.44.31 2.68 2.68 0 0 1 1.7 2.23Z" transform="translate(1.67 -.48)" fill="url(#f)" />
    <path fill="#f3fcff" d="M146.15 195.85h13.38v2.37h-13.38zM184.1 194.18h12.3v2.23h-12.3z" />
    <path d="M155.78 136.01Z" fill="#00bfa6" />
    <path d="M154.11 136.49Z" transform="translate(1.67 -.48)" fill="url(#b)" />
    <path d="M205.45 312.61c.7.42 1.49 1 1.44 1.92a1.93 1.93 0 0 1-.44 1.05c-1.55 2.13-10.1 1.47-12.55 1.45-5.55-.06-5.32.28-10.8-.76a2.51 2.51 0 0 1-1.23-.47 3.13 3.13 0 0 1-.8-2.08 21.39 21.39 0 0 1 .13-5.48.7.7 0 0 1 .22-.49.5.5 0 0 1 .46 0 15.34 15.34 0 0 0 2.69.87 6.72 6.72 0 0 0 4.33-1 14.52 14.52 0 0 0 1.91-1.33c.42-.33 1.22-1.38 1.73-1.42s1.45.78 1.92 1.07l2.29 1.38ZM160.54 308.52a15.43 15.43 0 0 1-5.51-3.18 2 2 0 0 0-1.1-.57 2.13 2.13 0 0 0-.61.12 44.34 44.34 0 0 0-10.86 5.23c-.89.59-1.88 1.44-1.8 2.61.08 1.35 1.48 2 2.65 2.28a54.18 54.18 0 0 0 20.71 1.16 3.15 3.15 0 0 0 1.7-.6 3.69 3.69 0 0 0 1-2.2c.29-1.8.41-4.3-.35-5.95a7 7 0 0 1-5.83 1.1Z" fill="#3f3d56" />
    <rect x="78.67" y="181.43" width="252.06" height="9.54" rx="4.17" fill="#00bfa6" />
    <rect x="78.67" y="225.48" width="252.06" height="9.54" rx="4.17" fill="#00bfa6" />
    <path fill="#00bfa6" d="M260.33 231.38h11.35v84.02h-11.35zM79.73 231.38h13.29v84.02H79.73zM319.08 231.38h10.76v84.02h-10.76z" />
    <path d="m135.21 159.06 35.66-12.15 1.58 16.12-33.61 11.14s-1.48 5.28-3.63-15.11Z" fill="#f3fcff" />
    <path d="M179.64 150.11v-7.26h-2v-2.12h7.42v2h-1.63v22.84a2 2 0 0 1-2 2 2 2 0 0 1-2-2Z" transform="translate(1.67 -.48)" fill="url(#g)" />
    <path d="M175.67 146.02a5.18 5.18 0 0 1 2-.61 4.71 4.71 0 0 1 1.69.37 31.32 31.32 0 0 1 5.14 2.34 3.08 3.08 0 0 1 1.19 1 1.13 1.13 0 0 1-.02 1.4c-.34.29-.87.27-1.18.59a1.53 1.53 0 0 0-.28 1.17l.18 4.5a3.91 3.91 0 0 1-.5 2.6c-.78 1-2.27 1-3.52.81a26.46 26.46 0 0 1-7.9-2.49 2.17 2.17 0 0 1-1.43-1.84c-.39-1.56-1.59-5.16-.85-6.69s4.09-2.5 5.48-3.15Z" fill="#f7ad7e" />
    <path d="m208.87 152.6 15.55-6.59a4.47 4.47 0 0 1 5.78 2.24l2 4.44a5.71 5.71 0 0 1-2.74 7.55c-8.41 4-24.38 11.37-25.29 10.59-1.21-1.06 4.7-18.23 4.7-18.23Z" fill="#f3fcff" />
    <path d="M232.19 142.96a7.67 7.67 0 0 1 1.8-1.88 5.68 5.68 0 0 1 2.3-.67 27.27 27.27 0 0 1 4.78-.18 3.87 3.87 0 0 1 1.47.27 4.42 4.42 0 0 1 1.17.86l3 2.81a3.48 3.48 0 0 1 1.13 1.56 2.68 2.68 0 0 1-1.2 2.56 19.92 19.92 0 0 0-2.38 1.78c-.53.56-.87 1.27-1.38 1.85a4.32 4.32 0 0 1-5.4.73c-.67-.44-1.28-1.1-2.08-1.13a3.54 3.54 0 0 0-1.74.63 5.59 5.59 0 0 1-5 .38c-1.62-.79-2.69-3.2-1.61-4.8a12.65 12.65 0 0 1 2.43-2 19.58 19.58 0 0 0 2.71-2.77Z" fill="#f7ad7e" />
    <path d="m237.67 144.74 1.93-5.34-1.44-.52.57-1.56 5.44 2-.55 1.5-1.19-.43-6.09 16.76a1.55 1.55 0 0 1-2 .92 1.54 1.54 0 0 1-.92-2Z" fill="#f3fcff" />
    <path d="m236 145.22 1.93-5.34-1.44-.52.57-1.56 5.44 2-.55 1.5-1.19-.43-6.09 16.76a1.55 1.55 0 0 1-2 .92 1.54 1.54 0 0 1-.92-2Z" transform="translate(1.67 -.48)" fill="url(#h)" />
    <path d="M238.4 140.1c-.33.13-.69.4-.6.74a.81.81 0 0 0 .33.38 16.19 16.19 0 0 0 1.72 1.1 2.82 2.82 0 0 0-2.91.79 1.2 1.2 0 0 0-.25.62 1.1 1.1 0 0 0 .4.82 3.6 3.6 0 0 0 .81.46l1.51.69a3.62 3.62 0 0 1-1.23.08 1 1 0 0 0-1 .57.82.82 0 0 0 .17.73 2.22 2.22 0 0 0 .6.5l1 .66a2.74 2.74 0 0 0 .69.38 2.08 2.08 0 0 0 1.21 0 3.44 3.44 0 0 0 1.48-.85 6 6 0 0 0 1.23-2 3.57 3.57 0 0 0 .42-2.33 10.44 10.44 0 0 0-1-1.73c-.29-.6-.17-.93-.81-1.31a4.37 4.37 0 0 0-3.77-.3Z" fill="#f7ad7e" />
    <path d="M257.3 171a11.51 11.51 0 1 1-14.59-11.09 1.45 1.45 0 0 0 1.07-1.4V152h-1.05v-1.51h6.53V152h-.88v6.4a1.9 1.9 0 0 0 1.28 1.77A11.51 11.51 0 0 1 257.3 171Z" transform="translate(1.67 -.48)" fill="url(#i)" />
    <path d="M242.56 166.86c4.88-.12 9.85 1.44 14.58.24a10.37 10.37 0 0 1-2 9.92 9.72 9.72 0 0 1-9.64 2.88 11.45 11.45 0 0 1-3.13-1.46 8.29 8.29 0 0 1-3.59-4.21c-2.17-4.3-.11-7.27 3.78-7.37Z" fill="#00bfa6" />
    <path d="M294.54 171A11.51 11.51 0 1 1 280 159.92a1.45 1.45 0 0 0 1.07-1.4V152h-1v-1.51h6.53V152h-.87v6.4a1.89 1.89 0 0 0 1.27 1.77 11.5 11.5 0 0 1 7.54 10.83Z" transform="translate(1.67 -.48)" fill="url(#j)" />
    <path d="M279.8 166.86c4.88-.12 9.85 1.44 14.58.24a10.35 10.35 0 0 1-2 9.92 9.72 9.72 0 0 1-9.64 2.88 11.45 11.45 0 0 1-3.13-1.46 8.29 8.29 0 0 1-3.59-4.21c-2.16-4.3-.12-7.27 3.78-7.37Z" fill="#00bfa6" />
    <path d="M118.33 216.42a11.51 11.51 0 1 1-14.6-11.08 1.45 1.45 0 0 0 1.08-1.4v-6.52h-1v-1.51h6.52v1.51h-.87v6.39a1.9 1.9 0 0 0 1.28 1.78 11.51 11.51 0 0 1 7.59 10.83Z" transform="translate(1.67 -.48)" fill="url(#k)" />
    <path d="M103.59 212.28c4.88-.13 9.84 1.44 14.58.24a10.38 10.38 0 0 1-2 9.92 9.75 9.75 0 0 1-9.64 2.88 11.19 11.19 0 0 1-3.13-1.47 8.22 8.22 0 0 1-3.59-4.2c-2.14-4.31-.14-7.27 3.78-7.37Z" fill="#00bfa6" />
    <path d="M276.38 216a11.51 11.51 0 1 1-14.6-11.09 1.44 1.44 0 0 0 1.07-1.4V197h-1.05v-1.51h6.53V197h-.87v6.4a1.91 1.91 0 0 0 1.28 1.78 11.49 11.49 0 0 1 7.64 10.82Z" transform="translate(1.67 -.48)" fill="url(#l)" />
    <path d="M261.67 211.82c4.88-.12 9.85 1.44 14.59.24a10.35 10.35 0 0 1-2 9.92 9.68 9.68 0 0 1-9.63 2.88 11.18 11.18 0 0 1-3.13-1.46 8.29 8.29 0 0 1-3.59-4.21c-2.24-4.3-.18-7.27 3.76-7.37Z" fill="#00bfa6" />
    <path d="M241.64 142.76a19.57 19.57 0 0 0 .06-3.9 12 12 0 0 0-1.47-3.67c-2-3.7-4-7.45-5-11.54s-.71-8.66 1.64-12.15c1.89-2.82 4.91-4.65 7.32-7.06a20.54 20.54 0 0 0 5.09-8.44l10.09 5.36a19.48 19.48 0 0 1 5.36 3.67c3 3.3 3.4 8.4 2.06 12.68s-4.12 7.94-6.84 11.51l-7.31 9.56a4.5 4.5 0 0 0-1 2 7 7 0 0 0 .54 2.64 6.14 6.14 0 0 1-2.17 6.28c-5.78 4.38-8.57-2.06-8.37-6.94Z" transform="translate(1.67 -.48)" fill="url(#m)" />
    <path d="m227 153-21.7 10.28-17.94-30.65-1.28 5.53s14.82 32.09 16.46 33.15c0 0 .49.53 2.61-.53s20.46-8.65 22.68-10.06 4.79-3.11 2.74-7.55Z" transform="translate(1.67 -.48)" fill="url(#n)" />
    <path d="M237.11 153.38a10.59 10.59 0 0 0-1 2.19 3.64 3.64 0 0 1-.7 1.47.77.77 0 0 1-1 .21.87.87 0 0 1-.25-.37 2.66 2.66 0 0 1-.18-.88 5 5 0 0 1 .62-2.07c.24-.51.32-1 .92-1 .29.04 1.26.95 1.59.45ZM184.6 162.14a9 9 0 0 0 0 1.64 2.66 2.66 0 0 1-.17 1.12 1.51 1.51 0 0 1-1.11.91 1.26 1.26 0 0 1-1.27-.61 2.26 2.26 0 0 1-.2-.86c0-.54-.42-1.78.2-2 .23-.13 2.53-.06 2.55-.2ZM86.84 188.24h9.54v39.06h-9.54zM313.01 188.24h9.54v39.06h-9.54z" fill="#00bfa6" />
    <rect x="78.67" y="181.43" width="252.06" height="9.54" rx="4.17" fill="url(#o)" />
    <rect x="78.67" y="225.48" width="252.06" height="9.54" rx="4.17" fill="url(#p)" />
    <path fill="url(#q)" d="M260.33 234.79h11.35v80.61h-11.35z" />
    <path fill="url(#r)" d="M79.73 234.79h13.29v80.61H79.73z" />
    <path fill="url(#s)" d="M319.08 234.79h10.76v80.61h-10.76z" />
    <path fill="url(#t)" d="M86.84 190.92h9.54v34.71h-9.54z" />
    <path fill="url(#u)" d="M313.01 190.93h9.54v34.7h-9.54z" />
    <path d="M240 206.43v-7.27h-2V197h7.41v2.05h-1.62v22.84a2 2 0 0 1-2 2 2 2 0 0 1-2-2Z" transform="translate(1.67 -.48)" fill="url(#v)" />
    <path d="M245.01 218.46a8.16 8.16 0 0 0 0 1.64 2.61 2.61 0 0 1-.16 1.11 1.52 1.52 0 0 1-1.12.91 1.25 1.25 0 0 1-1.27-.6 2.11 2.11 0 0 1-.19-.86c-.05-.54-.43-1.78.19-2 .21-.14 2.52-.07 2.55-.2Z" fill="#00bfa6" />
    <path d="M230.28 206.43v-7.27h-2V197h7.42v2.05h-1.6v22.84a2 2 0 0 1-2 2 2 2 0 0 1-2-2Z" transform="translate(1.67 -.48)" fill="url(#w)" />
    <path d="M235.24 218.46a9 9 0 0 0 0 1.64 2.61 2.61 0 0 1-.17 1.11 1.51 1.51 0 0 1-1.11.91 1.23 1.23 0 0 1-1.29-.6 2.3 2.3 0 0 1-.2-.86c-.05-.54-.42-1.78.19-2 .26-.14 2.56-.07 2.58-.2Z" fill="#00bfa6" />
    <path d="M220.52 206.43v-7.27h-2V197H226v2.05h-1.62v22.84a2 2 0 0 1-2 2 2 2 0 0 1-2-2Z" transform="translate(1.67 -.48)" fill="url(#x)" />
    <path d="M225.48 218.46a9 9 0 0 0 0 1.64 2.61 2.61 0 0 1-.16 1.11 1.52 1.52 0 0 1-1.12.91 1.25 1.25 0 0 1-1.27-.6 2.11 2.11 0 0 1-.19-.86c-.05-.54-.43-1.78.19-2 .22-.14 2.53-.07 2.55-.2Z" fill="#00bfa6" />
    <path d="M210.75 206.43v-7.27h-2V197h7.42v2.05h-1.63v22.84a2 2 0 0 1-2 2 2 2 0 0 1-2-2Z" transform="translate(1.67 -.48)" fill="url(#y)" />
    <path d="M215.67 218.46a9 9 0 0 0 0 1.64 2.61 2.61 0 0 1-.17 1.11 1.51 1.51 0 0 1-1.11.91 1.24 1.24 0 0 1-1.27-.6 2.3 2.3 0 0 1-.2-.86c-.05-.54-.42-1.78.2-2 .27-.14 2.55-.07 2.55-.2ZM206.06 208.45h45.19v1.82h-45.19z" fill="#00bfa6" />
    <path fill="#00bfa6" d="M204.81 208.45h2.16v17.83h-2.16zM249.09 208.45h2.16v17.83h-2.16z" />
    <path d="M122.11 164.74v-6.37h-1.72v-1.85h6.5v1.79h-1.43v20a1.74 1.74 0 0 1-1.74 1.74 1.74 1.74 0 0 1-1.72-1.75Z" transform="translate(1.67 -.48)" fill="url(#z)" />
    <path d="M126.67 175.22a7.69 7.69 0 0 0 0 1.44 2.52 2.52 0 0 1-.15 1 1.32 1.32 0 0 1-1 .79 1.09 1.09 0 0 1-1.12-.53 1.91 1.91 0 0 1-.17-.75c0-.47-.37-1.56.17-1.78.27-.11 2.27-.05 2.27-.17Z" fill="#00bfa6" />
    <path d="M113.56 164.74v-6.37h-1.72v-1.85h6.49v1.79h-1.42v20a1.74 1.74 0 0 1-1.74 1.74 1.74 1.74 0 0 1-1.74-1.76Z" transform="translate(1.67 -.48)" fill="url(#A)" />
    <path d="M118.12 175.22a6.92 6.92 0 0 0 0 1.44 2.34 2.34 0 0 1-.14 1 1.34 1.34 0 0 1-1 .79 1.08 1.08 0 0 1-1.11-.53 1.75 1.75 0 0 1-.17-.75c0-.47-.38-1.56.16-1.78.22-.11 2.23-.05 2.26-.17Z" fill="#00bfa6" />
    <path d="M105 164.74v-6.37h-1.72v-1.85h6.5v1.79h-1.43v20a1.74 1.74 0 0 1-1.74 1.74 1.74 1.74 0 0 1-1.74-1.76Z" transform="translate(1.67 -.48)" fill="url(#B)" />
    <path d="M109.56 175.22a7.69 7.69 0 0 0 0 1.44 2.52 2.52 0 0 1-.15 1 1.32 1.32 0 0 1-1 .79 1.09 1.09 0 0 1-1.12-.53 1.91 1.91 0 0 1-.17-.75c0-.47-.37-1.56.17-1.78.23-.11 2.25-.05 2.27-.17Z" fill="#00bfa6" />
    <path d="M96.45 164.74v-6.37h-1.72v-1.85h6.49v1.79H99.8v20a1.74 1.74 0 0 1-1.74 1.74 1.74 1.74 0 0 1-1.74-1.76Z" transform="translate(1.67 -.48)" fill="url(#C)" />
    <path d="M101.01 175.22a6.92 6.92 0 0 0 0 1.44 2.34 2.34 0 0 1-.14 1 1.34 1.34 0 0 1-1 .79 1.08 1.08 0 0 1-1.11-.53 1.91 1.91 0 0 1-.17-.75c0-.47-.38-1.56.16-1.78.22-.11 2.24-.05 2.26-.17ZM92.55 166.45h39.59v1.59H92.55z" fill="#00bfa6" />
    <path fill="#00bfa6" d="M91.45 166.45h1.89v15.62h-1.89zM130.25 166.45h1.89v15.62h-1.89z" />
    <path d="M154.19 209.83v-5.92h-1.61v-1.72h6v1.66h-1.28v18.6a1.62 1.62 0 0 1-1.62 1.61 1.62 1.62 0 0 1-1.62-1.63Z" transform="translate(1.67 -.48)" fill="url(#D)" />
    <path d="M158.54 219.52a6.66 6.66 0 0 0 0 1.34 2.37 2.37 0 0 1-.14.91 1.21 1.21 0 0 1-.91.73 1 1 0 0 1-1-.49 1.84 1.84 0 0 1-.16-.7c0-.44-.34-1.45.16-1.65.18-.07 2.03-.02 2.05-.14Z" fill="#00bfa6" />
    <path d="M146.24 209.83v-5.92h-1.6v-1.72h6v1.66h-1.32v18.6a1.61 1.61 0 0 1-1.62 1.61 1.61 1.61 0 0 1-1.61-1.63Z" transform="translate(1.67 -.48)" fill="url(#E)" />
    <path d="M150.59 219.52a6.66 6.66 0 0 0 0 1.34 2.37 2.37 0 0 1-.14.91 1.22 1.22 0 0 1-.9.73 1 1 0 0 1-1-.49 1.84 1.84 0 0 1-.16-.7c0-.44-.34-1.45.16-1.65.12-.07 2.02-.02 2.04-.14Z" fill="#00bfa6" />
    <path d="M138.29 209.83v-5.92h-1.6v-1.72h6v1.66h-1.29v18.6a1.61 1.61 0 0 1-1.62 1.61 1.61 1.61 0 0 1-1.61-1.63Z" transform="translate(1.67 -.48)" fill="url(#F)" />
    <path d="M142.67 219.52a7.49 7.49 0 0 0 0 1.34 2.37 2.37 0 0 1-.14.91 1.2 1.2 0 0 1-.9.73 1 1 0 0 1-1-.49 2 2 0 0 1-.16-.7c0-.44-.34-1.45.16-1.65.12-.07 2.04-.02 2.04-.14Z" fill="#00bfa6" />
    <path d="M130.34 209.83v-5.92h-1.6v-1.72h6v1.66h-1.33v18.6a1.61 1.61 0 0 1-1.61 1.61 1.62 1.62 0 0 1-1.62-1.63Z" transform="translate(1.67 -.48)" fill="url(#G)" />
    <path d="M134.67 219.52a7.49 7.49 0 0 0 0 1.34 2.19 2.19 0 0 1-.13.91 1.23 1.23 0 0 1-.91.73 1 1 0 0 1-1-.49 1.83 1.83 0 0 1-.15-.7c0-.44-.35-1.45.15-1.65.17-.07 2.04-.02 2.04-.14ZM126.83 211.39h36.78v1.48h-36.78z" fill="#00bfa6" />
    <path fill="#00bfa6" d="M125.82 211.39h1.76v14.51h-1.76zM161.86 211.39h1.76v14.51h-1.76z" />
</svg>