<svg data-name="Layer 1" xmlns="http://www.w3.org/2000/svg" xmlns:xlink="http://www.w3.org/1999/xlink" viewBox="0 0 684.15 532.03" width="406" height="306" class="illustration styles_illustrationTablet__1DWOa">
    <defs>
        <linearGradient id="b" x1="266.23" y1="301.93" x2="267.04" y2="281.9" gradientUnits="userSpaceOnUse">
            <stop offset="0" stop-color="#fff" stop-opacity="0" />
            <stop offset=".95" stop-color="#fff" />
        </linearGradient>
        <linearGradient id="c" x1="315.37" y1="335.42" x2="315.37" y2="281.81" gradientUnits="userSpaceOnUse">
            <stop offset=".12" stop-color="#010101" stop-opacity="0" />
            <stop offset=".95" stop-color="#010101" />
        </linearGradient>
        <linearGradient id="a" x1="310.55" y1="156.15" x2="314.6" y2="156.15" gradientUnits="userSpaceOnUse">
            <stop offset="0" stop-color="#e5c6d6" />
            <stop offset=".42" stop-color="#ead4d0" />
            <stop offset="1" stop-color="#f0e9cb" />
        </linearGradient>
        <linearGradient id="d" x1="-832.43" y1="154.05" x2="-828.37" y2="154.05" gradientTransform="matrix(-1 0 0 1 -488.84 0)" xlink:href="#a" />
        <linearGradient id="e" x1="373.63" y1="277.78" x2="376.21" y2="220.15" xlink:href="#b" />
        <linearGradient id="f" x1="260.3" y1="264.04" x2="358.61" y2="254.35" xlink:href="#b" />
        <linearGradient id="g" x1="320.89" y1="123.36" x2="324.84" y2="133.86" gradientUnits="userSpaceOnUse">
            <stop offset="0" stop-color="#010101" stop-opacity="0" />
            <stop offset=".95" stop-color="#010101" />
        </linearGradient>
        <linearGradient id="h" x1="316.88" y1="173.85" x2="334.37" y2="173.85" xlink:href="#a" />
        <linearGradient id="i" x1="323.89" y1="180.07" x2="331.96" y2="140.18" xlink:href="#c" />
        <linearGradient id="j" x1="313.2" y1="152.07" x2="340.89" y2="152.07" xlink:href="#a" />
        <linearGradient id="k" x1="254.31" y1="223.3" x2="304.06" y2="229.11" gradientUnits="userSpaceOnUse">
            <stop offset=".52" stop-color="#fff" stop-opacity=".52" />
            <stop offset=".95" stop-color="#fff" />
        </linearGradient>
        <linearGradient id="l" x1="319.5" y1="433.65" x2="338.32" y2="243.76" xlink:href="#c" />
        <linearGradient id="m" x1="398.97" y1="181.74" x2="415.87" y2="181.74" xlink:href="#a" />
        <linearGradient id="n" x1="311.73" y1="211.94" x2="325.94" y2="207.2" xlink:href="#b" />
        <linearGradient id="o" x1="349.49" y1="206.16" x2="333.77" y2="207.24" gradientUnits="userSpaceOnUse">
            <stop offset="0" stop-color="#fff" stop-opacity="0" />
            <stop offset=".11" stop-color="#fff" stop-opacity=".18" />
            <stop offset=".29" stop-color="#fff" stop-opacity=".42" />
            <stop offset=".45" stop-color="#fff" stop-opacity=".63" />
            <stop offset=".6" stop-color="#fff" stop-opacity=".79" />
            <stop offset=".74" stop-color="#fff" stop-opacity=".9" />
            <stop offset=".86" stop-color="#fff" stop-opacity=".98" />
            <stop offset=".95" stop-color="#fff" />
        </linearGradient>
        <linearGradient id="p" x1="337.87" y1="173.87" x2="268.42" y2="252.68" xlink:href="#c" />
        <linearGradient id="q" x1="363.22" y1="196.21" x2="293.77" y2="275.02" xlink:href="#c" />
        <linearGradient id="r" x1="307.76" y1="234.3" x2="368.97" y2="289.21" xlink:href="#c" />
        <linearGradient id="s" x1="303.58" y1="259.11" x2="331.17" y2="259.11" xlink:href="#a" />
        <linearGradient id="t" x1="343.42" y1="154.2" x2="335.21" y2="152.5" xlink:href="#c" />
        <linearGradient id="u" x1="-811.67" y1="156.22" x2="-819.88" y2="154.52" gradientTransform="matrix(-1 0 0 1 -500.72 0)" xlink:href="#c" />
        <linearGradient id="v" x1="359.88" y1="218.1" x2="348.07" y2="237.68" xlink:href="#c" />
        <linearGradient id="w" x1="358.25" y1="220.7" x2="350.67" y2="233.27" xlink:href="#c" />
        <linearGradient id="x" x1="455.2" y1="305.84" x2="444.22" y2="284.52" gradientTransform="rotate(25.67 451.475 298.627)" xlink:href="#b" />
    </defs>
    <path d="M297.43 30.89c-15.85-.57-32 .3-47.06 5.19-17 5.49-32 15.84-45.33 27.65-35.71 31.56-61.26 74.17-100.36 101.4-25.09 17.48-55.48 28.44-75.1 51.87-20.69 24.75-25.58 58.77-28 90.92-1 12.77-1.67 25.86 1.93 38.15 4.09 14 13.4 25.76 23.17 36.54a351.16 351.16 0 0 0 76.48 63.47c13.15 8.07 26.89 15.32 38.93 24.95 29.61 23.67 48 60.89 81.64 78.31 20 10.32 43.07 12.4 65.53 13.14 35.82 1.17 72.6-.77 105.71-14.5 58.62-24.3 100.2-83 161.9-97.83 16.37-3.93 33.6-4.55 49.3-10.63 14.61-5.66 27.12-15.79 37.73-27.32 24.78-26.92 40.21-62.67 41-99.25s-13.44-73.59-39.81-98.95c-29.49-28.35-71.69-41.17-99.5-71.17-15.69-16.93-26.46-39-46-51.33-27.3-17.27-60.62-11.89-88.34-29-33.67-20.76-74.41-30.18-113.82-31.61Z" transform="translate(-.8 -30.74)" fill="#00bfa6" opacity=".24" style="isolation:isolate" />
    <path fill="#00bfa6" d="M181.01 106.1h58.78v144.05h-58.78z" />
    <path fill="#00bfa6" d="M282.43 147.44v58.78H138.38v-58.78zM164.22 310.88h7.11v131.13h-7.11zM467.18 310.88h7.11v131.13h-7.11z" />
    <rect x="140.31" y="280.51" width="252.58" height="24.55" rx="12.27" fill="#00bfa6" />
    <rect x="140.31" y="280.51" width="252.58" height="24.55" rx="12.27" fill="url(#b)" />
    <rect x="132.56" y="305.06" width="365.62" height="9.04" rx="4.52" fill="#00bfa6" />
    <rect x="132.56" y="305.06" width="365.62" height="9.04" rx="4.52" fill="url(#c)" />
    <path d="M310.58 154.23a5.44 5.44 0 0 0 1.42 4.29 2.32 2.32 0 0 0 .91.65c1.84.6 1.95-3.15 1.41-4.22s-3.47-3.13-3.74-.72Z" transform="translate(-.8 -30.74)" fill="url(#a)" />
    <path d="M343.56 152.13a5.48 5.48 0 0 1-1.42 4.29 2.28 2.28 0 0 1-.92.65c-1.83.6-1.94-3.15-1.41-4.22s3.48-3.13 3.75-.72Z" transform="translate(-.8 -30.74)" fill="url(#d)" />
    <path d="M373.1 488.22c1.71-1.34 2.65-3.4 4-5.12 5.39-7.09 15.61-7.5 24.24-9.69a49.12 49.12 0 0 0 20.46-10.87c-16-1.92-32.23-1-48.34-.1l-108.99 6.16a122.16 122.16 0 0 0-18.22 2c-1.63.34-3.4.86-4.3 2.26-1 1.59-.48 3.81.77 5.24a12.6 12.6 0 0 0 4.78 3c17.25 7.34 36.33 12 54.77 8.62 1.28-.23 2.73-.65 3.25-1.84s-.22-2.7 0-4c.44-2.51 3.73-3.08 6.27-3.06l24.28.12a7.24 7.24 0 0 1 4.12.84c2.49 1.7 2.15 5.83 4.56 7.64a7.4 7.4 0 0 0 4 1.08c6.39.34 18.88 2 24.35-2.28Z" transform="translate(-.8 -30.74)" fill="#00bfa6" opacity=".24" style="isolation:isolate" />
    <path d="M342.5 151.96s22 29.4 32 43.93 20.7-38.43 20.7-38.43l15.78 9.8s-12.92 73.54-41.34 51.9-27.14-67.2-27.14-67.2Z" fill="#00bfa6" />
    <path d="M343.3 182.7s22 29.4 32 43.93S396 188.2 396 188.2l15.78 9.8s-12.92 73.54-41.34 51.9-27.14-67.2-27.14-67.2Z" transform="translate(-.8 -30.74)" fill="url(#e)" />
    <path d="M317.89 145.69c-8.22 4-14.45 11-20.44 17.93a14.8 14.8 0 0 0-2.41 4.81c-6.8 18.2-5.82 30-8 44.8-1.76 12.15-5.54 24.52-2.71 36.47 0 0 .65 48.9 3.24 56.65l80.74-1.93s-6.14-79-6.67-88.72c-2.59-46.94-12.06-57.28-19.17-63.74s-24.58-6.27-24.58-6.27Z" fill="#00bfa6" />
    <path d="M318.69 176.43c-8.22 4-14.45 11-20.44 17.93a14.8 14.8 0 0 0-2.41 4.81c-6.8 18.2-5.82 30-8 44.8-1.76 12.15-5.54 24.52-2.71 36.47 0 0 .65 48.9 3.24 56.65l80.74-1.93s-6.41-75.15-6.46-84.84c-.21-40.91-10.44-60.83-19.38-67.62-7.62-5.8-24.58-6.27-24.58-6.27Z" transform="translate(-.8 -30.74)" fill="url(#f)" />
    <path d="m347.11 197.59 12-.41s1.69 16.31-1.37 17.28-10.34.16-10.34.16Z" fill="#fff" />
    <path d="M315.7 151s9.36 8.88 14.53 2.9 4.52-3.71 4.52-3.71l-3.55 56.84ZM328.67 92.26a10.46 10.46 0 0 0-7-3.78c-2.63-.28-5.54.64-7 2.86a10.56 10.56 0 0 0-1.21 5.56 11.13 11.13 0 0 0 .82 5.26 7.37 7.37 0 0 0 3.93 3.37 11.24 11.24 0 0 0 11.4-2.46c3.04-2.75 1.35-7.99-.94-10.81Z" fill="#606161" />
    <path d="M329.47 123a10.46 10.46 0 0 0-7-3.78c-2.63-.28-5.54.64-7 2.86a10.56 10.56 0 0 0-1.21 5.56 11.13 11.13 0 0 0 .82 5.26 7.37 7.37 0 0 0 3.93 3.37 11.24 11.24 0 0 0 11.4-2.46c3.04-2.75 1.35-7.99-.94-10.81Z" transform="translate(-.8 -30.74)" fill="url(#g)" />
    <path d="M320.16 164.72s-.11 12.28-2.91 14.86 11.2 14.64 17.12 1.19c0 0-3.45-5.82-2.26-15.61s-11.95-.44-11.95-.44Z" transform="translate(-.8 -30.74)" fill="url(#h)" />
    <path d="M319.73 167.63v2.69s7.1 10.23 10 6.79 2-4.2 2-4.2l.33-7.75Z" transform="translate(-.8 -30.74)" fill="url(#i)" />
    <path d="M313.37 147.18s-2 18.73 8 22.44 16-1.61 18.73-10.66-1.45-27.29-12.11-25.51-14.62 13.73-14.62 13.73Z" transform="translate(-.8 -30.74)" fill="url(#j)" />
    <path d="M310.97 122.73a4.85 4.85 0 0 1-.87-2.18 20.45 20.45 0 0 1 6.78-19.22 11.23 11.23 0 0 1 3.75-2.21 12.29 12.29 0 0 1 4.27-.44 21.45 21.45 0 0 1 12.46 4.49 16.33 16.33 0 0 1 6.15 11.55 8 8 0 0 1-.64 3.9 4.25 4.25 0 0 1-3 2.43c-2.31.4-2.95-1.74-4.81-3.16-2.82-2.15-3.72-5.33-10.13-4.79-10.42.88-11.15 13.06-13.96 9.63Z" fill="#606161" />
    <path d="M308.43 152.13s-34.88 24.22-36.34 69.92c-.84 26.48 29.07 22 30 21.32s3.88-23.25 3.88-23.25-10.66 0-11.95-1.94 14.41-66.05 14.41-66.05Z" fill="#00bfa6" />
    <path d="M309.23 182.87s-34.88 24.22-36.34 69.92c-.84 26.48 29.07 22 30 21.32s3.88-23.25 3.88-23.25-10.66 0-11.95-1.94 14.41-66.05 14.41-66.05Z" transform="translate(-.8 -30.74)" fill="url(#k)" />
    <path fill="#606161" d="m294.06 305.71-1.29 126.61.97 17.76 12.91.65 19.38-137.59 16.07 137.83 13.81-.08 1.78-146.47-63.63 1.29z" />
    <path fill="url(#l)" d="m294.06 305.71-1.29 126.61.97 17.76 12.91.65 19.71-139.21 15.74 139.45 13.81-.08 1.78-146.47-63.63 1.29z" />
    <path d="M399.57 185.43a40.5 40.5 0 0 1 1.68-9.22 13.61 13.61 0 0 1 5.52-7.35 5.56 5.56 0 0 1 4-.86c2.45.58 3.66 3.42 3.81 5.94s-.35 5.12.37 7.54c.23.78.58 1.52.77 2.31.62 2.68-.78 5.41-2.47 7.58a12.66 12.66 0 0 1-3.34 3.15 8.39 8.39 0 0 1-8.79-.39c-3.31-2.36-1.91-5.13-1.55-8.7Z" transform="translate(-.8 -30.74)" fill="url(#m)" />
    <path fill="#606161" d="m283.08 460.42 22.61-.32.96-9.37-12.91-.65-10.66 10.34zM365.68 460.42l-22.61-.32-.97-9.37 12.92-.65 10.66 10.34z" />
    <path d="M318.2 146.15s-3.66 3.12 0 10.87 13.35 51.47 13.35 51.47l-19.38-32 2.16-12.06-4.13-3.17s0-11.41 2.16-13.78 4.46-2.22 5.84-1.33Z" fill="#00bfa6" />
    <path d="M331.68 144.7s5.82 1.45 6.79 4.2 5 10.82 5 10.82l-2.58 3.54 4 4.68-13.41 40.54s3.45-54.91 2.05-58.46-1.85-5.32-1.85-5.32Z" fill="#00bfa6" />
    <path d="M319 176.89s-3.66 3.12 0 10.87 13.35 51.47 13.35 51.47l-19.38-32 2.16-12.06L311 192s0-11.41 2.16-13.78 4.46-2.22 5.84-1.33Z" transform="translate(-.8 -30.74)" fill="url(#n)" />
    <path d="M332.48 175.44s5.82 1.45 6.79 4.2 5 10.82 5 10.82l-2.58 3.54 4 4.68-13.41 40.54s3.45-54.91 2.05-58.46-1.85-5.32-1.85-5.32Z" transform="translate(-.8 -30.74)" fill="url(#o)" />
    <path d="M329.12 174a5 5 0 0 1-4.12-2.74c-.26-.44-.81-1.3-1.52-2.43-3.09-4.87-9.52-15-10.59-18.59-1.15-3.82 2.12-6.08 4-6.74l.38 1.09c-.18.06-4.42 1.6-3.31 5.32 1 3.42 7.4 13.48 10.47 18.31.72 1.14 1.27 2 1.53 2.45 1 1.63 2.27 2.42 3.58 2.19s4.3-1.83 6.13-11.91c2.59-14.22-1.72-16.5-3.15-17.26l.54-1c1.6.85 6.48 3.42 3.74 18.48-1.88 10.39-5.23 12.5-7.05 12.83a3.57 3.57 0 0 1-.63 0Z" fill="#00bfa6" />
    <path d="M322.66 233.81a10.42 10.42 0 0 1-5-1.33 9.76 9.76 0 0 1-5.34-8.82c.2-3.64 2.83-6.69 7.41-8.59 14.91-6.22 9.71-41.35 9.66-41.7l1.13-.17c.23 1.47 5.38 36.36-10.36 42.92-4.14 1.73-6.52 4.43-6.69 7.6a8.76 8.76 0 0 0 4.74 7.76 9.55 9.55 0 0 0 10.44-.85c10.91-7.79 23-32.52 23-35.71h1.15c0 3.36-12.05 28.46-23.5 36.65a11.32 11.32 0 0 1-6.64 2.24Z" fill="#00bfa6" />
    <path d="M329.92 204.74a5 5 0 0 1-4.12-2.74c-.26-.44-.81-1.3-1.52-2.43-3.09-4.87-9.52-15-10.59-18.59-1.15-3.82 2.12-6.08 4-6.74l.38 1.09c-.18.06-4.42 1.6-3.31 5.32 1 3.42 7.4 13.48 10.47 18.31.72 1.14 1.27 2 1.53 2.45 1 1.63 2.27 2.42 3.58 2.19s4.3-1.83 6.13-11.91c2.59-14.22-1.72-16.5-3.15-17.26l.54-1c1.6.85 6.48 3.42 3.74 18.48-1.88 10.39-5.23 12.5-7.05 12.83a3.57 3.57 0 0 1-.63 0Z" transform="translate(-.8 -30.74)" fill="url(#p)" />
    <path d="M323.46 264.55a10.42 10.42 0 0 1-5-1.33 9.76 9.76 0 0 1-5.34-8.82c.2-3.64 2.83-6.69 7.41-8.59 14.91-6.22 9.71-41.35 9.66-41.7l1.13-.17c.23 1.47 5.38 36.36-10.36 42.92-4.14 1.73-6.52 4.43-6.69 7.6a8.76 8.76 0 0 0 4.74 7.76 9.55 9.55 0 0 0 10.44-.85c10.91-7.79 23-32.52 23-35.71h1.15c0 3.36-12.05 28.46-23.5 36.65a11.32 11.32 0 0 1-6.64 2.24Z" transform="translate(-.8 -30.74)" fill="url(#q)" />
    <path d="m317.96 221.08 5-16.22a5.76 5.76 0 0 1 6.39-4l19.67 3a5.78 5.78 0 0 1 4.59 7.52l-12.66 38.24a5.76 5.76 0 0 1-6.82 3.79l-18.53-4.43a5.77 5.77 0 0 1-4.16-7.35Z" fill="#00bfa6" />
    <path d="m318.76 251.82 5-16.22a5.76 5.76 0 0 1 6.39-4l19.67 3a5.78 5.78 0 0 1 4.59 7.52l-12.66 38.24a5.76 5.76 0 0 1-6.82 3.79l-18.53-4.43a5.77 5.77 0 0 1-4.16-7.35Z" transform="translate(-.8 -30.74)" fill="url(#r)" />
    <path d="m318.93 222.05 5-16.22a5.76 5.76 0 0 1 6.39-4l19.67 3a5.78 5.78 0 0 1 4.59 7.52l-12.66 38.24a5.77 5.77 0 0 1-6.82 3.79l-18.53-4.43a5.77 5.77 0 0 1-4.16-7.35Z" fill="#00bfa6" />
    <path d="M324.68 250.2a9.3 9.3 0 0 1 4 .52 3.82 3.82 0 0 1 2.45 3c.13 1.61-1.08 3-2.43 3.89s-2.92 1.39-4.2 2.37c-1.58 1.22-2.58 3-3.95 4.48a11.82 11.82 0 0 1-12.72 2.75 6.37 6.37 0 0 1-4.18-7.55c.22-1.48.8-4.4 2-5.43s4.64-1.41 6.19-1.84a55.9 55.9 0 0 1 12.84-2.19Z" transform="translate(-.8 -30.74)" fill="url(#s)" />
    <path d="M341.7 153.47a1.41 1.41 0 0 0 .29-.4 3.19 3.19 0 0 0 .07-.54.75.75 0 0 1 .25-.46.51.51 0 0 1 .5-.1.58.58 0 0 1 .31.36 1.84 1.84 0 0 1 .07.47 3.75 3.75 0 0 1-.27 1.82 4.07 4.07 0 0 1-.87 1 .68.68 0 0 1-.47.26.66.66 0 0 1-.34-.12.23.23 0 0 1-.12-.1.31.31 0 0 1 0-.13 3.44 3.44 0 0 1 0-1.28 1.67 1.67 0 0 1 .58-.78Z" transform="translate(-.8 -30.74)" fill="url(#t)" />
    <path d="M312.68 155.49a1.27 1.27 0 0 1-.3-.4 3.19 3.19 0 0 1-.07-.54.73.73 0 0 0-.25-.46.5.5 0 0 0-.5-.1.55.55 0 0 0-.3.36 1.25 1.25 0 0 0-.07.47 3.69 3.69 0 0 0 .27 1.81 3.92 3.92 0 0 0 .86 1 .74.74 0 0 0 .48.26.73.73 0 0 0 .34-.12.38.38 0 0 0 .12-.1.31.31 0 0 0 0-.13 3.43 3.43 0 0 0 0-1.28 1.72 1.72 0 0 0-.58-.77Z" transform="translate(-.8 -30.74)" fill="url(#u)" />
    <path d="M350.33 195.17a5.21 5.21 0 0 0 1.86 3.2 2.09 2.09 0 0 0 1 .57 1.8 1.8 0 0 0 1.2-.33 3.78 3.78 0 0 0 1.7-4c-.83-3.04-6.08-3.07-5.76.56Z" fill="#00bfa6" />
    <path d="M351.3 193.75c.15 1.68 2.34 6 5.36 4.58a4.66 4.66 0 0 0 2.26-5.29c-1.06-4.07-8.05-4.11-7.62.71Z" fill="#00bfa6" />
    <path d="M352.1 224.49c.6 5.59 4.88 4.88 5.36 4.58a5 5 0 0 0 2.26-5.29c-1.06-4.07-8.14-4.1-7.62.71Z" transform="translate(-.8 -30.74)" fill="url(#v)" />
    <path d="M353.25 224.8c.39 3.59 3.14 3.13 3.44 2.94a3.21 3.21 0 0 0 1.46-3.39c-.69-2.62-5.23-2.64-4.9.45Z" transform="translate(-.8 -30.74)" fill="url(#w)" />
    <rect x="388.52" y="284.77" width="125.97" height="27.78" rx="13.89" transform="rotate(-25.67 383.618 285.03)" fill="#00bfa6" />
    <rect x="388.52" y="284.77" width="125.97" height="27.78" rx="13.89" transform="rotate(-25.67 383.618 285.03)" fill="url(#x)" />
</svg>